<?xml version="1.0" standalone="no"?>
<!DOCTYPE svg PUBLIC "-//W3C//DTD SVG 1.1//EN" "http://www.w3.org/Graphics/SVG/1.1/DTD/svg11.dtd" >
<svg xmlns="http://www.w3.org/2000/svg">
<metadata>Generated by IcoMoon</metadata>
<defs>
<font id="mappps-icon" horiz-adv-x="1024">
<font-face units-per-em="1024" ascent="960" descent="-64" />
<missing-glyph horiz-adv-x="1024" />
<glyph unicode="&#x20;" horiz-adv-x="512" d="" />
<glyph unicode="&#xe900;" glyph-name="arrow-left-plain" d="M201.519 536.244h733.411c49.18 0 89.050-39.869 89.050-89.050s-39.869-89.050-89.050-89.050v0h-733.411c-49.18 0-89.050 39.869-89.050 89.050s39.869 89.050 89.050 89.050v0zM356.583 804.044c0.012 0 0.027 0 0.040 0 49.18 0 89.050-39.869 89.050-89.050 0-24.601-9.975-46.87-26.101-62.986l-204.576-204.576 204.576-204.576c15.465-15.996 24.998-37.818 24.998-61.863 0-49.18-39.869-89.050-89.050-89.050-24.046 0-45.867 9.531-61.89 25.022l0.025-0.024-267.564 267.564c-16.109 16.114-26.074 38.371-26.074 62.959s9.964 46.843 26.074 62.959l267.564 267.564c16.108 16.099 38.355 26.056 62.927 26.063h0.001z" />
<glyph unicode="&#xe901;" glyph-name="bin" d="M128 640v-640c0-35.2 28.8-64 64-64h576c35.2 0 64 28.8 64 64v640h-704zM320 64h-64v448h64v-448zM448 64h-64v448h64v-448zM576 64h-64v448h64v-448zM704 64h-64v448h64v-448zM848 832h-208v80c0 26.4-21.6 48-48 48h-224c-26.4 0-48-21.6-48-48v-80h-208c-26.4 0-48-21.6-48-48v-80h832v80c0 26.4-21.6 48-48 48zM576 832h-192v63.198h192v-63.198z" />
<glyph unicode="&#xe902;" glyph-name="user" d="M512.037 415.999c-141.392 0-256.013 114.621-256.013 256.013s114.621 256.013 256.013 256.013c141.392 0 256.013-114.621 256.013-256.013v0c0-141.392-114.621-256.013-256.013-256.013v0zM512.037 799.943c-0.022 0-0.048 0-0.075 0-70.696 0-128.007-57.31-128.007-128.007s57.31-128.007 128.007-128.007c70.696 0 128.007 57.31 128.007 128.007 0 0.026 0 0.053 0 0.079v-0.004c0 70.696-57.31 128.007-128.007 128.007v0zM960.059-31.948c-35.348 0-64.003 28.655-64.003 64.003v0c0 106.044-85.966 192.009-192.009 192.009v0h-384.019c-106.044 0-192.009-85.966-192.009-192.009v0c0-35.348-28.655-64.003-64.003-64.003s-64.003 28.655-64.003 64.003v0c0.36 176.58 143.43 319.624 319.986 319.941h383.974c176.611-0.317 319.698-143.404 320.016-319.985v-0.031c0-35.348-28.655-64.003-64.003-64.003v0z" />
<glyph unicode="&#xe903;" glyph-name="arrow-right" d="M315.641-63.986c-65.885 0.014-119.288 53.428-119.288 119.314 0 32.942 13.349 62.765 34.933 84.355l308.368 308.308-308.368 308.309c-21.602 21.594-34.962 51.429-34.962 84.385 0 65.897 53.42 119.317 119.317 119.317 32.942 0 62.765-13.349 84.355-34.932l392.722-392.722c21.603-21.594 34.963-51.429 34.963-84.385s-13.361-62.792-34.963-84.384l-392.723-392.723c-21.527-21.527-51.264-34.84-84.113-34.84-0.085 0-0.17 0-0.255 0h0.013z" />
<glyph unicode="&#xe904;" glyph-name="pen" d="M731.97 948.622c15.17 15.17 37.926 15.17 53.096 0v0l227.556-227.556c15.17-15.17 15.17-37.926 0-53.096v0l-644.741-644.741c-3.793-3.793-11.378-7.585-18.963-11.378v0l-303.407-75.852c-26.548-7.585-53.096 18.963-45.511 45.511v0l75.852 303.407c0 7.585 3.793 11.378 11.378 18.963v0l644.741 644.741zM606.815 717.274l-458.904-458.904-56.889-231.348 231.348 56.889 458.904 458.904-174.459 174.459zM758.519 868.978l-98.607-98.607 174.459-174.459 98.607 98.607-174.459 174.459z" />
<glyph unicode="&#xe905;" glyph-name="plus" d="M992 576h-352v352c0 17.672-14.328 32-32 32h-192c-17.672 0-32-14.328-32-32v-352h-352c-17.672 0-32-14.328-32-32v-192c0-17.672 14.328-32 32-32h352v-352c0-17.672 14.328-32 32-32h192c17.672 0 32 14.328 32 32v352h352c17.672 0 32 14.328 32 32v192c0 17.672-14.328 32-32 32z" />
<glyph unicode="&#xe906;" glyph-name="download" d="M736 512l-256-256-256 256h160v384h192v-384zM480 256h-480v-256h960v256h-480zM896 128h-128v64h128v-64z" />
<glyph unicode="&#xe907;" glyph-name="upload" d="M480 256h-480v-256h960v256h-480zM896 128h-128v64h128v-64zM224 640l256 256 256-256h-160v-320h-192v320z" />
<glyph unicode="&#xe908;" glyph-name="new-tab" d="M192 896v-768h768v768h-768zM896 192h-640v640h640v-640zM128 64v672l-64 64v-800h800l-64 64h-672zM352 704l160-160-192-192 96-96 192 192 160-160v416z" />
<glyph unicode="&#xe909;" glyph-name="phone" d="M963.77 360.772l-141.683 56.594c-11.159 4.834-24.155 7.645-37.807 7.645-26.5 0-50.526-10.594-68.075-27.777l0.017 0.017-73.4-72.518c-127.577 28.397-226.206 127.262-253.846 252.757l-0.407 2.201 71.944 72.606c17.643 17.575 28.56 41.89 28.56 68.756 0 13.154-2.617 25.696-7.358 37.134l0.236-0.644-57.344 141.154c-14.649 36.174-49.494 61.226-90.191 61.226-0.067 0-0.134 0-0.202 0h-209.824c-69.873-5.824-124.376-63.97-124.376-134.847 0-3.772 0.154-7.509 0.457-11.203l-0.032 0.485c15.085-194.968 123.156-834.659 882.21-878.285h7.94c73.834 1.044 133.298 61.096 133.39 135.057v198.992c0.002 0.251 0.004 0.549 0.004 0.846 0 40.331-24.602 74.915-59.618 89.564l-0.641 0.238zM268.192 627.906c-3.952-3.985-6.395-9.472-6.395-15.53 0-0.979 0.064-1.943 0.187-2.887l-0.012 0.111 2.161-15.306c0-3.44 47.684-351.076 391.525-394.128l18.086-2.293c0.796-0.1 1.716-0.157 2.649-0.157 6.095 0 11.621 2.433 15.66 6.381l-0.004-0.004 97.969 97.043 114.687-45.963v-185c-0.282-4.295-2.246-8.083-5.234-10.749l-0.015-0.014c-2.786-2.43-6.456-3.913-10.472-3.913-0.351 0-0.699 0.011-1.045 0.034l0.047-0.002c-642.293 36.788-751.247 549.397-768.097 769.331 0 0.013 0 0.029 0 0.044 0 8.6 6.971 15.571 15.571 15.571 0.016 0 0.031 0 0.047 0h183.983l45.654-114.687z" />
<glyph unicode="&#xe90a;" glyph-name="mail" d="M0.582 798.524c0 31.419 25.47 56.889 56.889 56.889h909.623c31.419 0 56.889-25.47 56.889-56.889v0-644.2c-0.024-62.745-50.833-113.614-113.552-113.735h-796.627c-62.823 0-113.754 50.916-113.778 113.733v625.78c0 0.044 0 0.095 0 0.146 0 2.753 0.202 5.459 0.592 8.103l-0.037-0.3zM113.805 672.009v-517.685h796.615v517.685l-277.82-277.52c-30.883-30.873-73.541-49.967-120.659-49.967s-89.777 19.094-120.66 49.967l-277.562 277.819zM203.262 743.473l268.374-268.503c10.297-10.316 24.535-16.698 40.261-16.698s29.964 6.382 40.262 16.698l268.502 268.502h-617.443z" />
<glyph unicode="&#xe90b;" glyph-name="arrow-right-plain" d="M822.481 359.756h-733.411c-49.18 0-89.050 39.869-89.050 89.050s39.869 89.050 89.050 89.050v0h733.411c49.18 0 89.050-39.869 89.050-89.050s-39.869-89.050-89.050-89.050v0zM667.417 91.956c-0.012 0-0.027 0-0.040 0-49.18 0-89.050 39.869-89.050 89.050 0 24.601 9.975 46.87 26.101 62.986l204.576 204.576-204.576 204.576c-15.465 15.996-24.998 37.818-24.998 61.863 0 49.18 39.869 89.050 89.050 89.050 24.046 0 45.867-9.531 61.89-25.022l-0.025 0.024 267.564-267.564c16.109-16.114 26.074-38.371 26.074-62.959s-9.964-46.843-26.074-62.959l-267.564-267.564c-16.108-16.099-38.355-26.056-62.927-26.063h-0.001z" />
<glyph unicode="&#xe90c;" glyph-name="arrow-left" d="M708.359-63.986c65.885 0.014 119.288 53.428 119.288 119.314 0 32.942-13.349 62.765-34.933 84.355l-308.368 308.308 308.368 308.309c21.602 21.594 34.962 51.429 34.962 84.385 0 65.897-53.42 119.317-119.317 119.317-32.942 0-62.765-13.349-84.355-34.932l-392.722-392.722c-21.603-21.594-34.963-51.429-34.963-84.385s13.361-62.792 34.963-84.384l392.723-392.723c21.527-21.527 51.264-34.84 84.113-34.84 0.085 0 0.17 0 0.255 0h-0.013z" />
<glyph unicode="&#xe90d;" glyph-name="search" d="M1010.442 18.964l-196.275 196.56c60.981 76.84 97.833 175.23 97.833 282.228 0 251.842-204.158 456-456 456s-456-204.158-456-456c0-251.842 204.158-456 456-456 113.351 0 217.044 41.359 296.808 109.808l-0.611-0.511 194.908-195.136c8.142-8.428 19.546-13.661 32.171-13.661 24.693 0 44.711 20.018 44.711 44.711 0 12.597-5.21 23.977-13.592 32.104l-0.012 0.011zM91.037 497.006c0 0.067 0 0.148 0 0.228 0 202.141 163.867 366.007 366.007 366.007s366.007-163.867 366.007-366.007c0-202.060-163.737-365.877-365.767-366.007h-0.013c-202.067 0.097-365.879 163.748-366.235 365.745v0.035z" />
<glyph unicode="&#xe90e;" glyph-name="exit" d="M768 320v128h-320v128h320v128l192-192zM704 384v-256h-320v-192l-384 192v832h704v-320h-64v256h-512l256-128v-576h256v192z" />
<glyph unicode="&#xe90f;" glyph-name="sun" d="M512 704.475c-141.424 0-256.475-115.074-256.475-256.498s115.054-256.498 256.475-256.498c141.401 0 256.475 115.054 256.475 256.498s-115.074 256.498-256.475 256.498zM512 779.87c-27.641 0-50.043 22.402-50.043 50.021v80.064c0 27.641 22.402 50.043 50.043 50.043s50.043-22.402 50.043-50.043v-80.064c0-27.618-22.425-50.021-50.043-50.021zM512 116.153c-27.641 0-50.043-22.402-50.043-50.043v-80.043c0-27.664 22.402-50.066 50.043-50.066s50.043 22.402 50.043 50.066v80.043c0 27.641-22.425 50.043-50.043 50.043zM746.64 682.663c-19.522 19.545-19.522 51.223 0 70.768l56.619 56.619c19.522 19.522 51.223 19.522 70.768 0 19.545-19.545 19.545-51.246 0-70.768l-56.619-56.619c-19.522-19.545-51.2-19.545-70.768 0zM277.337 213.314c-19.545 19.568-51.223 19.568-70.768 0l-56.619-56.597c-19.522-19.522-19.545-51.246 0-70.768s51.246-19.522 70.768 0l56.619 56.642c19.545 19.522 19.545 51.223 0 70.722zM843.847 448c0 27.641 22.402 50.043 50.043 50.043h80.064c27.641 0 50.043-22.402 50.043-50.043s-22.402-50.021-50.043-50.021h-80.064c-27.641 0-50.043 22.379-50.043 50.021zM180.13 448c0 27.641-22.402 50.043-50.043 50.043h-80.043c-27.641 0-50.043-22.402-50.043-50.043s22.402-50.021 50.043-50.021h80.064c27.618 0 50.021 22.379 50.021 50.021zM746.64 213.314c19.545 19.522 51.246 19.522 70.768 0l56.619-56.619c19.545-19.499 19.545-51.223 0-70.745s-51.223-19.522-70.768 0l-56.619 56.619c-19.545 19.545-19.545 51.223 0 70.745zM277.337 682.663c19.545 19.545 19.545 51.223 0 70.768l-56.619 56.597c-19.545 19.545-51.223 19.545-70.768 0-19.545-19.522-19.545-51.223 0-70.745l56.619-56.619c19.545-19.568 51.223-19.568 70.768 0z" />
<glyph unicode="&#xe910;" glyph-name="information" d="M512 960c-283.006 0-512-229.014-512-512 0-283.006 229.014-512 512-512 283.006 0 512 229.014 512 512 0 283.006-229.016 512-512 512zM512 16c-238.786 0-432 193.23-432 432 0 238.786 193.23 432 432 432 238.786 0 432-193.23 432-432 0-238.786-193.232-432-432-432zM512 531.34c-22.092 0-40-17.908-40-40v-257.586c0-22.092 17.908-40 40-40s40 17.91 40 40.002v257.584c0 22.092-17.908 40-40 40zM566 634.32c0-29.822-24.178-54-54-54s-54 24.178-54 54c0 29.822 24.178 54 54 54s54-24.178 54-54z" />
<glyph unicode="&#xe911;" glyph-name="cross" d="M862.598-31.911l-830.476 830.476c-36.918 36.918-36.918 96.777 0 133.696v0c36.918 36.918 96.777 36.918 133.696 0v0l830.476-830.476c36.918-36.918 36.918-96.777 0-133.696v0c-36.918-36.918-96.777-36.918-133.696 0v0zM27.71 97.417l830.654 830.654c36.918 36.918 96.777 36.918 133.696 0v0c36.918-36.918 36.918-96.777 0-133.696v0l-830.654-830.654c-36.918-36.918-96.777-36.918-133.696 0v0c-36.918 36.918-36.918 96.777 0 133.696v0z" />
<glyph unicode="&#xe912;" glyph-name="eye" d="M511.963 696.691c63.322-0.578 119.741-29.632 157.152-74.958l0.28-0.349c38.572-45.808 62.010-105.468 62.010-170.602 0-0.976-0.005-1.951-0.015-2.924l0.002 0.148c0.009-0.825 0.015-1.8 0.015-2.776 0-65.134-23.438-124.793-62.34-171.004l0.33 0.403c-37.691-45.675-94.111-74.73-157.334-75.307l-0.098-0.001c-63.333 0.569-119.765 29.625-157.181 74.958l-0.28 0.349c-38.554 45.803-61.981 105.449-61.981 170.567 0 0.988 0.005 1.975 0.016 2.96l-0.002-0.15c-0.009 0.835-0.015 1.822-0.015 2.81 0 65.118 23.427 124.763 62.312 170.97l-0.33-0.403c37.696 45.682 94.129 74.739 157.365 75.307l0.096 0.001zM511.963 287.093c72.587 0 131.657 72.177 131.657 160.914s-59.070 160.914-131.657 160.914-131.657-72.177-131.657-160.914 59.070-160.914 131.657-160.914zM511.992 842.977c0.292 0.001 0.637 0.001 0.984 0.001 120.457 0 231.402-40.72 319.823-109.147l-1.203 0.895c88.916-68.464 155.48-161.993 189.415-269.977l1.048-3.869c1.227-3.855 1.935-8.289 1.935-12.887s-0.707-9.033-2.020-13.198l0.084 0.311c-18.173-58.303-43.567-109.062-75.759-154.68l1.154 1.724c-32.786-46.633-71.074-86.529-114.578-119.974l-1.28-0.945c-87.56-67.52-198.822-108.219-319.589-108.219s-232.029 40.699-320.818 109.129l1.229-0.91c-44.784 34.391-83.072 74.288-114.712 119.203l-1.146 1.716c-31.038 43.893-56.432 94.652-73.553 149.077l-1.052 3.878c-1.227 3.855-1.935 8.289-1.935 12.887s0.707 9.033 2.020 13.198l-0.084-0.311c34.973 111.851 101.528 205.38 189.156 272.9l1.278 0.947c87.218 67.531 198.164 108.252 318.62 108.252 0.346 0 0.691 0 1.037-0.001h-0.053zM933.995 448.007c-59.324 179.766-225.78 307.214-422.004 307.214s-362.679-127.448-421.106-304.081l-0.898-3.133c59.324-179.766 225.78-307.214 422.004-307.214s362.679 127.448 421.106 304.081l0.898 3.133z" />
<glyph unicode="&#xe913;" glyph-name="check" d="M1023.992 702.398c0-0.015 0-0.034 0-0.052 0-31.871-12.913-60.727-33.793-81.619l-508.265-508.496c-20.896-20.902-49.767-33.832-81.658-33.832-29.848 0-57.052 11.326-77.547 29.915l0.097-0.087-284.807 257.482c-23.386 21.21-38.012 51.714-38.012 85.634 0 29.861 11.336 57.075 29.939 77.573l-0.086-0.096c21.21 23.386 51.714 38.012 85.634 38.012 29.861 0 57.075-11.336 77.573-29.939l-0.096 0.086 203.368-183.739 431.060 431.060c20.842 20.591 49.502 33.309 81.132 33.309 63.68 0 115.319-51.551 115.463-115.197v-0.014z" />
<glyph unicode="&#xe914;" glyph-name="filter" d="M100.971 959.985h822.059c55.718-0.075 100.865-45.222 100.941-100.933v-132.855c0-0.083 0-0.181 0-0.279 0-27.77-11.288-52.904-29.526-71.063l-329.581-329.581c-0.327-0.333-0.529-0.791-0.529-1.295 0-0.009 0-0.019 0-0.028v0.001-132.848c-0.012-13.676-5.565-26.054-14.533-35.012l-205.516-205.516c-8.97-8.992-21.375-14.556-35.078-14.556-27.363 0-49.545 22.183-49.545 49.545 0 0.008 0 0.016 0 0.024v-0.001 338.362c0 0.008 0 0.017 0 0.027 0 0.504-0.202 0.961-0.529 1.295v0l-329.379 329.577c-18.36 18.182-29.727 43.394-29.727 71.263 0 0.029 0 0.058 0 0.087v-0.005 132.848c0.075 55.718 45.222 100.865 100.933 100.941h0.007zM565.245 211.65v112.303c0 0.044 0 0.095 0 0.147 0 27.77 11.288 52.904 29.525 71.063l329.581 329.581c0.327 0.333 0.529 0.791 0.529 1.295 0 0.009 0 0.019 0 0.028v-0.001 132.98c0 1.022-0.828 1.85-1.85 1.85h-822.059c-1.022 0-1.85-0.828-1.85-1.85v0-132.848c0-0.008 0-0.017 0-0.027 0-0.504 0.202-0.961 0.529-1.295v0l329.577-329.709c18.242-18.163 29.529-43.296 29.529-71.067 0-0.098 0-0.196 0-0.294v0.015-218.793z" />
<glyph unicode="&#xe915;" glyph-name="moon" d="M539.298-63.959c195.895-2.062 374.84 110.816 457.355 288.492-51.93-22.658-108.174-33.754-164.819-32.522-222.043 0.249-401.986 180.193-402.238 402.238 2.224 150.196 85.097 287.58 216.912 359.617-35.549 4.526-71.374 6.553-107.212 6.053-282.744 0-511.939-229.204-511.939-511.939 0-282.744 229.195-511.939 511.939-511.939z" />
<glyph unicode="&#xe916;" glyph-name="marker" d="M511.999 959.97c-211.618 0-389.105-170.66-389.105-389.105 0-88.743 61.438-218.445 177.487-382.28 88.743-116.049 177.487-211.618 177.487-218.445l34.132-34.132 34.132 34.132c6.826 6.826 88.743 95.57 177.487 218.445 122.875 163.834 177.487 293.536 177.487 382.28 0 218.445-177.487 389.105-389.105 389.105zM511.999 434.336c-75.091 0-143.355 61.438-143.355 143.355s61.438 143.355 143.355 143.355 143.355-61.438 143.355-143.355-68.263-143.355-143.355-143.355z" />
<glyph unicode="&#xe917;" glyph-name="geolocation" d="M512.011 597.319c-82.398 0-149.33-66.932-149.33-149.33s66.932-149.33 149.33-149.33 149.33 66.932 149.33 149.33-66.932 149.33-149.33 149.33zM512.011 383.99c-35.199 0-63.999 28.799-63.999 63.999s28.799 63.999 63.999 63.999 63.999-28.799 63.999-63.999-28.799-63.999-63.999-63.999zM981.334 490.655h-87.731c-20 177.596-161.329 318.926-338.926 338.926v87.731c0 23.466-19.2 42.666-42.666 42.666s-42.666-19.2-42.666-42.666v-87.731c-177.596-20-318.926-161.329-338.926-338.926h-87.731c-23.466 0-42.666-19.2-42.666-42.666s19.2-42.666 42.666-42.666h87.731c19.733-177.596 161.063-318.926 338.926-338.926v-87.731c0-23.466 19.2-42.666 42.666-42.666s42.666 19.2 42.666 42.666v87.731c177.596 19.733 318.926 161.063 338.926 338.926h87.731c23.466 0 42.666 19.2 42.666 42.666s-19.2 42.666-42.666 42.666zM512.011 149.329c-164.796 0-298.66 133.864-298.66 298.66s133.864 298.66 298.66 298.66 298.66-133.864 298.66-298.66-133.864-298.66-298.66-298.66z" />
<glyph unicode="&#xe918;" glyph-name="fullscreen" d="M349.108 959.977h-325.803c-12.863 0-23.272-10.409-23.272-23.272v-325.803c0-12.863 10.409-23.272 23.272-23.272h46.542c12.863 0 23.272 10.409 23.272 23.272v255.989h255.989c12.863 0 23.272 10.409 23.272 23.272v46.542c0 12.863-10.409 23.272-23.272 23.272zM1000.718 959.977h-325.805c-12.863 0-23.272-10.409-23.272-23.272v-46.542c0-12.863 10.409-23.272 23.272-23.272h255.989v-255.989c0-12.863 10.409-23.272 23.272-23.272h46.542c12.863 0 23.272 10.409 23.272 23.272v325.803c0 12.863-10.407 23.272-23.27 23.272zM1000.718 308.367h-46.542c-12.863 0-23.272-10.409-23.272-23.272v-255.989h-255.991c-12.863 0-23.272-10.409-23.272-23.272v-46.542c0-12.863 10.409-23.272 23.272-23.272h325.803c12.863 0 23.272 10.409 23.272 23.272v325.805c0 12.863-10.407 23.27-23.27 23.27zM349.108 29.108h-255.989v255.991c0 12.863-10.409 23.272-23.272 23.272h-46.542c-12.863-0.002-23.272-10.409-23.272-23.272v-325.803c0-12.863 10.409-23.272 23.272-23.272h325.803c12.863 0 23.272 10.409 23.272 23.272v46.542c0 12.861-10.409 23.27-23.272 23.27z" />
<glyph unicode="&#xe919;" glyph-name="fullscreen-exit" d="M349.097 959.988h-46.542c-12.863 0-23.272-10.409-23.272-23.272v-255.989h-255.989c-12.863 0-23.272-10.409-23.272-23.272v-46.542c0-12.863 10.409-23.272 23.272-23.272h325.803c12.863 0 23.272 10.409 23.272 23.272v325.803c0 12.863-10.409 23.272-23.272 23.272zM1000.707 680.728h-255.991v255.989c0 12.863-10.407 23.272-23.27 23.272h-46.542c-12.863 0-23.272-10.409-23.272-23.272v-325.803c0-12.863 10.409-23.272 23.272-23.272h325.803c12.863 0 23.272 10.409 23.272 23.272v46.542c-0.002 12.863-10.409 23.272-23.272 23.272zM1000.707 308.378h-325.805c-12.863 0-23.272-10.409-23.272-23.272v-325.803c0-12.863 10.409-23.272 23.272-23.272h46.542c12.863 0 23.272 10.409 23.272 23.272v255.991h255.989c12.863 0 23.272 10.409 23.272 23.272v46.542c0 12.863-10.407 23.27-23.27 23.27zM349.097 308.378h-325.803c-12.863 0-23.272-10.407-23.272-23.27v-46.542c0-12.863 10.409-23.272 23.272-23.272h255.989v-255.989c0-12.863 10.409-23.272 23.272-23.272h46.542c12.863 0 23.272 10.409 23.272 23.272v325.803c0 12.863-10.409 23.27-23.272 23.27z" />
<glyph unicode="&#xe91a;" glyph-name="minus" d="M0 544v-192c0-17.672 14.328-32 32-32h960c17.672 0 32 14.328 32 32v192c0 17.672-14.328 32-32 32h-960c-17.672 0-32-14.328-32-32z" />
<glyph unicode="&#xe91b;" glyph-name="refresh" d="M1023.671 512.004v447.99l-150.397-150.397c-92.478 92.798-220.155 150.397-361.594 150.397-282.874 0-511.349-229.115-511.349-511.991s228.475-511.991 511.349-511.991c238.395 0 438.070 163.196 494.709 383.992h-133.117c-52.799-149.117-194.236-255.994-361.592-255.994-212.155 0-383.992 171.836-383.992 383.992s171.836 383.992 383.992 383.992c105.918 0 200.956-44.159 270.394-113.598l-206.395-206.395h447.99z" />
<glyph unicode="&#xe91c;" glyph-name="arrow-bottom" d="M0.014 644.359c0.014 65.885 53.428 119.288 119.314 119.288 32.942 0 62.765-13.349 84.355-34.933l308.308-308.368 308.309 308.368c21.594 21.602 51.429 34.962 84.385 34.962 65.897 0 119.317-53.42 119.317-119.317 0-32.942-13.349-62.765-34.932-84.355l-392.722-392.722c-21.594-21.603-51.429-34.963-84.385-34.963s-62.792 13.361-84.384 34.963l-392.723 392.723c-21.527 21.527-34.84 51.264-34.84 84.113 0 0.085 0 0.17 0 0.255v-0.013z" />
<glyph unicode="&#xe91d;" glyph-name="enlarge" d="M1024 960v-416l-160 160-192-192-96 96 192 192-160 160zM448 288l-192-192 160-160h-416v416l160-160 192 192z" />
<glyph unicode="&#xe91e;" glyph-name="logo" d="M592.625-23.183c-7.371 1.95-14.684 4.015-22.084 5.794-15.802 3.815-22.169 11.615-22.8 27.876-1.894 49.071-0.344 98.199-1.635 147.27-1.348 51.365-0.861 102.731-1.291 154.095-0.058 5.592-1.635 8.26-7.342 9.121-36.883 5.565-73.478 12.848-110.503 17.523-1.75 0.229-3.471 0.688-5.22 1.062-5.133 1.062-7.6-0.659-7.486-6.28 0.229-11.443-0.258-22.914 0.144-34.33 0.315-9.206-1.865-18.183-1.894-27.332 0-2.438-1.032-4.991-2.008-7.313-4.647-11.013-33.813-30.544-45.716-29.568-13.939 1.147-27.618 4.703-40.352 10.497-9.407 4.274-13.192 12.906-13.192 23.173 0.029 26.958-0.258 53.947 0.173 80.905 0.115 7.4-2.926 9.465-9.492 10.525-48.355 7.686-96.68 15.66-145.005 23.575-13.278 2.18-26.558 4.359-39.779 6.683-6.51 1.147-8.145-1.52-8.403-7.83-2.553-61.030-0.315-122.118-1.664-183.119-0.632-28.45-1.032-56.9-1.348-85.35-0.086-8.862-3.871-16.29-10.927-21.74-6.453-4.962-13.136-9.607-19.731-14.398-9.292-6.797-19.531-8.145-30.458-5.277-7.112 1.894-14.081 4.503-21.252 6.080-11.672 2.582-19.731 8.919-23.346 20.505 0 127.252 0 254.532 0 381.785 3.183 12.848 12.533 18.326 24.32 22.628 46.088 16.778 91.918 34.301 137.835 51.594 43.996 16.605 87.961 33.269 131.955 49.903 38.976 14.742 77.923 29.626 117.013 44.11 6.138 2.265 6.338 4.56 3.412 9.837-11.186 20.219-25.037 38.976-33.957 60.4-19.416 46.749-16.463 92.922 11.042 134.881 48.785 74.452 144.344 82.741 205.662 36.596 32.065-24.12 50.935-56.241 56.126-95.246 4.303-32.294-1.377-63.698-18.899-92.291-11.386-18.613-21.596-37.943-32.551-56.844-2.782-4.789-1.52-5.821 3.527-6.51 39.205-5.277 78.381-10.956 117.615-16.233 32.925-4.417 65.906-8.318 98.831-12.704 35.448-4.703 70.868-9.837 106.317-14.569 22.37-2.983 44.799-5.535 67.197-8.345 3.012-0.373 6.051-0.774 8.977-1.549 14.369-3.9 19.216-10.268 19.216-25.152 0.029-60.313 0.861-120.627-0.229-180.912-1.062-58.22-1.176-116.468-1.262-174.689 0-4.703-0.43-9.521-3.155-13.163-11.157-14.857-24.779-26.758-42.676-32.954-3.412-1.176-6.883-1.205-10.497-0.229-10.295 2.724-20.793 4.847-31.003 7.915-12.36 3.729-18.642 12.533-18.757 25.582-0.173 17.552-0.058 35.104-0.058 52.685 0 66.422 0 132.845 0 199.238 0 9.722-0.086 9.866-9.121 5.65-37.828-17.552-75.572-35.248-113.4-52.8-43.335-20.133-86.641-40.352-130.178-60.027-7.772-3.527-10.841-7.371-10.812-16.319 0.315-100.264-0.029-200.529 0.173-300.764 0.029-14.254-4.732-24.406-17.954-30.6-9.436-4.417-18.555-9.492-28.364-13.049-4.589 0-9.148 0-13.737 0zM598.333 184.488c0.115 0 0.229 0 0.344 0 0 61.833-0.086 123.695 0.115 185.528 0.029 6.51-1.635 9.35-8.604 10.268-19.904 2.638-39.664 6.166-59.51 9.321-52.714 8.345-105.426 16.692-158.14 24.979-60.256 9.492-120.512 18.957-180.739 28.421-56.241 8.862-112.453 17.752-168.694 26.558-9.235 1.435-9.321 1.262-9.292-8.030 0.058-50.132 0.173-100.264 0.2-150.424 0.058-67.197 0.086-134.393 0.144-201.561 0-11.989 1.721-14.283 13.393-17.781 5.363-1.606 10.727-3.155 16.118-4.703 10.095-2.897 10.812-2.409 10.869 8.231 0.373 58.535-0.029 117.042 1.262 175.577 0.918 41.472 0.459 82.97 0.632 124.442 0 2.294-0.058 4.589 0.086 6.883 0.603 10.124 4.159 12.963 14.31 11.415 5.018-0.774 10.009-1.806 15.028-2.638 65.906-11.042 131.813-21.969 197.717-33.097 46.117-7.772 92.147-15.86 138.264-23.632 43.105-7.256 86.24-14.283 129.375-21.308 4.474-0.717 6.712-2.553 6.768-7.371 0.173-10.669 1.003-21.337 1.118-32.007 0.517-50.878 0.2-101.785 1.262-152.662 0.861-41.729 0.459-83.487 0.632-125.216 0.058-13.881 2.265-16.634 15.774-19.904 4.188-1.003 8.403-2.036 12.59-3.041 8.948-2.123 8.948-2.123 8.948 6.998 0.029 61.575 0.029 123.18 0.029 184.755zM639.918 776.696c0.632 13.995-1.262 26.299-5.133 38.202-16.089 49.502-59.195 86.182-113.17 89.682-49.158 3.183-88.476-16.261-117.127-56.815-27.188-38.489-28.249-97.569-3.642-138.064 22.685-37.369 43.908-75.599 65.763-113.429 13.48-23.346 26.902-46.72 40.496-69.978 3.9-6.683 5.133-6.624 9.121-0.058 5.535 9.121 10.927 18.355 16.233 27.618 27.273 47.379 54.32 94.845 81.794 142.108 14.827 25.525 28.535 51.223 25.667 80.734zM612.788 187.586c-0.402 0-0.803 0-1.205 0 0-5.851 0-11.701 0-17.523-0.086-54.205-0.173-108.409-0.258-162.585-0.029-14.11-0.258-13.566 12.619-7.744 10.612 4.789 14.54 11.443 14.512 23.488-0.144 60.801-0.832 121.601 0.717 182.404 1.062 41.443 0.632 82.941 0.173 124.413-0.086 8.804 2.868 12.992 10.64 16.577 67.225 30.918 134.364 62.063 201.388 93.41 37.972 17.752 75.686 36.108 113.629 54.003 11.586 5.477 15.802 2.495 15.946-10.383 0.43-36.625 0.029-73.248 1.003-109.9 1.606-59.768-0.2-119.566 2.123-179.334 0.173-4.674-2.524-11.386 1.52-13.451 3.585-1.835 6.883 4.789 10.612 7.285 8.374 5.535 11.874 13.021 11.874 23.746 0 40.439-0.058 80.876 0.861 121.315 1.664 71.986-1.205 144 1.75 215.986 0.373 9.148-0.229 9.465-8.748 5.65-31.807-14.225-63.554-28.564-95.304-42.876-94.586-42.619-189.143-85.35-283.844-127.71-7.313-3.27-10.21-6.883-10.153-15.143 0.315-60.515 0.144-121.086 0.144-181.628zM1002.976 570.26c-0.115 0.632-0.229 1.291-0.344 1.921-13.537 1.921-27.073 3.9-40.64 5.707-63.497 8.403-126.995 16.692-190.49 25.123-56.183 7.457-112.367 14.827-168.494 22.858-8.374 1.205-13.136-0.229-17.064-7.686-3.614-6.826-3.527-7.657 4.359-8.718 20.133-2.724 40.237-5.535 60.371-8.403 37.714-5.335 75.428-10.698 113.141-16.089 31.921-4.56 63.871-9.063 95.734-13.939 9.292-1.406 18.527-3.786 26.643-8.862 9.665-6.023 9.78-13.107 0.43-19.531-3.327-2.294-6.998-4.188-10.669-5.88-70.18-31.836-140.788-62.838-210.48-95.705-48.182-22.714-98.487-28.994-150.224-22.599-51.394 6.338-102.387 15.889-153.551 24.12-62.694 10.066-125.389 20.075-188.054 30.343-12.992 2.123-26.385 3.441-37.714 11.127-7.974 5.392-8.203 11.96-0.746 18.010 5.392 4.359 11.787 6.998 18.183 9.551 66.422 26.356 132.787 52.885 199.353 78.984 23.861 9.35 47.006 20.878 72.616 25.323 12.074 2.094 12.074 2.352 5.851 13.393-5.851 10.383-5.821 10.354-16.949 6.138-61.116-23.202-122.262-46.375-183.378-69.577-65.418-24.837-130.837-49.644-196.199-74.539-5.077-1.921-10.812-2.409-16.089-6.683 3.441-0.746 5.88-1.406 8.318-1.779 27.876-4.33 55.782-8.547 83.658-12.934 72.56-11.472 145.12-23.029 217.679-34.502 86.382-13.651 172.767-27.303 259.15-40.869 9.98-1.577 19.56-3.212 29.741 1.606 31.721 15.028 63.898 29.081 95.934 43.508 79.816 35.907 159.632 71.786 239.448 107.693 16.807 7.571 33.642 15.257 50.476 22.887zM861.843 547.775c-0.115 0.545-0.2 1.091-0.315 1.635-1.491 0-3.012 0.144-4.503-0.029-25.755-2.609-51.538-5.191-77.292-7.886-37.14-3.871-74.223-7.886-111.364-11.73-45.228-4.674-90.456-9.263-135.684-13.766-3.556-0.344-6.051-1.692-8.489-4.245-5.88-6.138-14.798-7.772-21.481-2.926-4.761 3.441-9.121 2.983-14.225 2.724-6.797-0.315-7.027-2.582-4.073-7.859 13.737-24.578 30.744-46.634 50.332-66.766 3.298-3.385 6.883-4.589 11.53-4.674 12.218-0.173 24.406 0.229 36.539 1.664 19.445 2.294 38.775 5.133 56.871 13.307 56.986 25.755 113.974 51.509 170.932 77.263 17.093 7.744 34.157 15.516 51.223 23.287zM460.899 565.642c0 2.036-0.115 4.073 0.029 6.109 0.344 5.077-1.835 7.256-6.854 5.88-13.48-3.7-27.303-6.080-40.467-10.984-24.979-9.321-45.973-25.094-65.906-42.102-9.378-8.001-17.122-18.44-19.587-31.175-1.462-7.571-3.241-14.913-6.51-21.825-2.495-5.335-0.344-6.654 4.56-7.256 8.059-1.003 16.060-2.495 24.090-3.786 54.147-8.777 108.294-17.523 162.443-26.27 1.664-0.258 3.786-1.147 4.818 0.832 0.832 1.606-0.832 2.782-1.894 3.786-18.269 17.466-30.429 39.349-43.564 60.515-3.385 5.45-5.506 11.386-7.83 17.293-6.309 16.060-4.789 32.495-3.327 48.985zM931.736 324.187c0-43.508-0.029-87.014 0-130.493 0-10.009 1.377-11.672 11.157-14.11 7.141-1.779 14.369-3.27 21.395-5.392 5.162-1.577 6.998-0.574 6.368 5.048-0.659 5.794-0.803 11.672-0.861 17.495-0.717 85.982-1.348 171.935-2.065 257.917-0.058 6.597-0.746 13.192-0.889 19.817-0.115 4.876-2.151 4.789-5.765 2.983-6.826-3.412-13.622-6.941-20.735-9.636-6.797-2.553-8.833-6.768-8.804-13.881 0.344-43.249 0.2-86.497 0.2-129.748zM841.365 556.494c0.058 0.488 0.115 0.976 0.2 1.462-7.772 1.118-15.545 2.209-23.287 3.327-37.657 5.363-75.342 10.727-112.998 16.060-41.443 5.88-82.913 11.472-124.298 17.81-6.826 1.032-9.407-1.549-12.389-6.51-11.242-18.699-20.678-38.46-32.666-56.729-1.147-1.721-3.729-3.729-1.721-5.965 1.606-1.779 4.33-0.659 6.568-0.402 33.068 3.412 66.136 6.854 99.204 10.239 27.79 2.868 55.582 5.736 83.343 8.575 27.273 2.782 54.549 5.477 81.823 8.26 12.045 1.205 24.12 2.553 36.222 3.871zM69.106 270.556c1.118-50.132-2.495-108.868-1.491-167.662 0.058-3.729-1.835-9.292 1.147-10.727 3.527-1.721 6.597 3.412 9.895 5.506 1.491 0.947 2.839 2.209 4.388 3.041 6.28 3.412 8.662 8.718 8.633 15.745-0.029 8.891 0.832 17.781 0.861 26.672 0.315 73.248 0.229 146.524 1.779 219.773 0.086 4.56 0.258 9.063 1.062 13.651 2.983 17.007 1.577 18.813-15.201 21.74-0.258 0.058-0.517 0.086-0.746 0.173-6.768 2.38-8.891-0.144-9.177-7.112-1.491-37.399-1.091-74.796-1.147-120.798zM151.647 494.029c3.614-1.262 4.761-1.835 5.965-2.065 19.502-3.298 39.034-6.568 58.564-9.809 26.299-4.359 52.57-8.718 78.869-12.934 3.385-0.545 6.883-1.205 9.58 2.553 11.845 16.519 5.88 39.893-12.619 48.297-9.492 4.303-19.101 8.345-28.535 12.734-4.674 2.151-8.862 2.265-13.795 0.258-20.907-8.575-42.016-16.749-63.038-25.066-11.042-4.388-22.055-8.804-34.99-13.966zM274.883 541.234c2.409-1.262 4.761-2.638 7.227-3.729 8.575-3.815 17.093-7.83 25.869-11.157 5.306-2.008 7.944-10.295 13.251-8.403 4.56 1.606 6.883 8.604 11.127 12.074 21.481 17.495 43.163 34.645 69.319 45.055 13.766 5.477 28.306 8.059 42.504 11.931 9.694 2.638 10.153 4.215 4.188 12.304-2.897 3.929-6.597 3.585-10.239 2.983-12.533-2.094-24.979-4.56-36.854-9.263-40.123-15.917-80.246-31.836-120.34-47.809-2.036-0.803-4.532-1.032-6.051-3.986zM363.331 299.839c0 14.254-0.315 28.508 0.144 42.734 0.2 6.338-2.524 8.604-8.174 9.35-7.542 1.003-15.172 1.921-22.57 3.642-5.794 1.348-7.171-0.632-7.141-5.965 0.144-26.958 0.173-53.918 0.029-80.876-0.029-7.342 3.527-11.415 10.181-13.221 6.624-1.779 13.422-3.012 19.932-5.048 5.936-1.865 7.744-0.029 7.629 5.909-0.2 14.483-0.058 28.967-0.029 43.479zM377.385 301.015c0-13.709-0.058-27.417 0.058-41.128 0.029-2.094-0.861-6.453 3.7-3.757 10.783 6.395 19.617 13.824 18.813 28.508-0.832 15.201-0.173 30.458-0.173 45.687 0 14.742 0 14.684-14.425 16.892-5.363 0.832-8.174-0.517-8.059-6.597 0.258-13.192 0.086-26.414 0.086-39.607zM474.379 553.109c-2.467-14.168-1.721-23.029 2.008-29.912 1.806-3.327 10.612-5.018 14.081-2.209 3.441 2.782 0.058 5.565-1.233 7.801-4.474 7.859-9.378 15.458-14.857 24.32zM464.055 776.151c-0.173 25.323 22.14 47.867 47.523 47.982 25.296 0.144 47.637-22.284 47.694-47.838 0.058-26.126-21.137-47.781-47.12-48.182s-47.923 21.538-48.096 48.038zM544.875 776.036c0.086 18.096-15.257 33.699-33.183 33.757-17.322 0.058-33.010-15.545-33.24-32.983-0.258-19.014 14.569-34.359 33.212-34.359 18.298-0.029 33.125 14.942 33.212 33.584z" />
<glyph unicode="&#xe91f;" glyph-name="shrink" d="M448 384v-416l-160 160-192-192-96 96 192 192-160 160zM1024 864l-192-192 160-160h-416v416l160-160 192 192z" />
<glyph unicode="&#xe920;" glyph-name="list" d="M384 896h640v-128h-640v128zM384 512h640v-128h-640v128zM384 128h640v-128h-640v128zM0 832c0 70.692 57.308 128 128 128s128-57.308 128-128c0-70.692-57.308-128-128-128s-128 57.308-128 128zM0 448c0 70.692 57.308 128 128 128s128-57.308 128-128c0-70.692-57.308-128-128-128s-128 57.308-128 128zM0 64c0 70.692 57.308 128 128 128s128-57.308 128-128c0-70.692-57.308-128-128-128s-128 57.308-128 128z" />
<glyph unicode="&#xe921;" glyph-name="map" d="M672 768l-320 128-352-128v-768l352 128 320-128 352 128v768l-352-128zM384 814.27l256-102.4v-630.138l-256 102.398v630.14zM64 723.172l256 93.090v-631.8l-256-93.088v631.798zM960 172.828l-256-93.092v631.8l256 93.090v-631.798z" />
</font>
</defs>
</svg>
